<svg width="16" height="10" viewBox="0 0 16 10" fill="none" xmlns="http://www.w3.org/2000/svg">
<path d="M15.5585 2.43001L8.585 0.287514C8.205 0.170764 7.795 0.170764 7.41525 0.287514L0.4415 2.43001C-0.147 2.61076 -0.147 3.38901 0.4415 3.56976L1.65725 3.94326C1.3905 4.27301 1.2265 4.67526 1.21025 5.11576C0.9695 5.25376 0.8 5.50276 0.8 5.80001C0.8 6.06951 0.942 6.29626 1.1465 6.44126L0.50825 9.31326C0.45275 9.56301 0.64275 9.80001 0.8985 9.80001H2.30125C2.55725 9.80001 2.74725 9.56301 2.69175 9.31326L2.0535 6.44126C2.258 6.29626 2.4 6.06951 2.4 5.80001C2.4 5.51076 2.23825 5.26876 2.0085 5.12826C2.0275 4.75276 2.2195 4.42076 2.52575 4.21026L7.415 5.71251C7.6415 5.78201 8.076 5.86876 8.58475 5.71251L15.5585 3.57001C16.1473 3.38901 16.1473 2.61101 15.5585 2.43001ZM8.81975 6.47726C8.1065 6.69626 7.49875 6.57526 7.18 6.47726L3.5545 5.36351L3.2 8.20001C3.2 9.08376 5.349 9.80001 8 9.80001C10.651 9.80001 12.8 9.08376 12.8 8.20001L12.4455 5.36326L8.81975 6.47726Z" fill="white"/>
</svg>
