<svg width="16" height="16" viewBox="0 0 16 16" fill="none" xmlns="http://www.w3.org/2000/svg">
<path d="M4.44385 2.38462C4.85538 1.87232 4.95692 1.52616 4.91462 1.37385C4.88231 1.25924 4.72923 1.20001 4.72769 1.20001C4.58839 1.15423 4.47002 1.06022 4.39389 0.934904C4.31776 0.80959 4.28887 0.661211 4.31243 0.516489C4.336 0.371768 4.41046 0.240216 4.52241 0.145526C4.63437 0.0508364 4.77645 -0.00076743 4.92308 8.62729e-06C4.98514 8.12893e-05 5.04685 0.00941488 5.10615 0.027701C5.18308 0.0515471 5.86846 0.283855 6.09 1.00924C6.27923 1.63001 6.04769 2.35155 5.40231 3.15462C4.99077 3.66693 4.88923 4.01308 4.93154 4.16539C4.96385 4.28001 5.11385 4.3377 5.11538 4.33847C5.25443 4.38417 5.37263 4.47793 5.44877 4.60292C5.52492 4.72791 5.55402 4.87595 5.53086 5.02046C5.5077 5.16497 5.4338 5.2965 5.32241 5.39144C5.21102 5.48638 5.06944 5.5385 4.92308 5.53847C4.86101 5.53839 4.79931 5.52906 4.74 5.51078C4.66308 5.48693 3.97769 5.25462 3.75615 4.52924C3.56692 3.90847 3.79846 3.18693 4.44385 2.38462ZM6.83308 4.53001C7.05462 5.25539 7.74 5.4877 7.81692 5.51154C7.87627 5.52957 7.93798 5.53864 8 5.53847C8.14636 5.5385 8.28794 5.48638 8.39933 5.39144C8.51072 5.2965 8.58463 5.16497 8.60779 5.02046C8.63095 4.87595 8.60184 4.72791 8.52569 4.60292C8.44955 4.47793 8.33135 4.38417 8.19231 4.33847C8.19231 4.33847 8.03846 4.28001 8.00846 4.16539C7.96615 4.01154 8.06769 3.66693 8.47923 3.15462C9.12462 2.35155 9.35615 1.63001 9.16692 1.00924C8.94538 0.283855 8.26077 0.0515471 8.18308 0.027701C8.12377 0.00941488 8.06206 8.12893e-05 8 8.62729e-06C7.85379 -0.000207136 7.71228 0.051644 7.60081 0.146273C7.48935 0.240902 7.41523 0.372126 7.39172 0.516436C7.3682 0.660746 7.39684 0.808712 7.4725 0.933828C7.54816 1.05894 7.6659 1.15303 7.80462 1.19924C7.80462 1.19924 7.95846 1.25847 7.99154 1.37308C8.03385 1.52693 7.93231 1.87155 7.52077 2.38385C6.87538 3.18693 6.64385 3.90847 6.83308 4.52924V4.53001ZM9.91 4.53001C10.1315 5.25539 10.8169 5.4877 10.8938 5.51154C10.9532 5.52957 11.0149 5.53864 11.0769 5.53847C11.2233 5.5385 11.3649 5.48638 11.4763 5.39144C11.5876 5.2965 11.6615 5.16497 11.6847 5.02046C11.7079 4.87595 11.6788 4.72791 11.6026 4.60292C11.5265 4.47793 11.4083 4.38417 11.2692 4.33847C11.2692 4.33847 11.1154 4.28001 11.0854 4.16539C11.0431 4.01154 11.1446 3.66693 11.5562 3.15462C12.2015 2.35155 12.4331 1.63001 12.2438 1.00924C12.0223 0.283855 11.3377 0.0515471 11.26 0.027701C11.2007 0.00941488 11.139 8.12893e-05 11.0769 8.62729e-06C10.9307 -0.000207136 10.7892 0.051644 10.6777 0.146273C10.5663 0.240902 10.4922 0.372126 10.4686 0.516436C10.4451 0.660746 10.4738 0.808712 10.5494 0.933828C10.6251 1.05894 10.7428 1.15303 10.8815 1.19924C10.8815 1.19924 11.0354 1.25847 11.0685 1.37308C11.1108 1.52693 11.0092 1.87155 10.5977 2.38385C9.95231 3.18693 9.72077 3.90847 9.91 4.52924V4.53001ZM15.3846 6.76924H0.615385C0.452174 6.76924 0.295649 6.83407 0.180242 6.94948C0.064835 7.06488 0 7.22141 0 7.38462C0.00270385 8.8481 0.405456 10.283 1.1647 11.5341C1.92395 12.7852 3.01079 13.805 4.30769 14.4831V14.7692C4.30769 15.0957 4.43736 15.4087 4.66818 15.6395C4.89899 15.8703 5.21204 16 5.53846 16H10.4615C10.788 16 11.101 15.8703 11.3318 15.6395C11.5626 15.4087 11.6923 15.0957 11.6923 14.7692V14.4831C12.9892 13.805 14.0761 12.7852 14.8353 11.5341C15.5945 10.283 15.9973 8.8481 16 7.38462C16 7.22141 15.9352 7.06488 15.8198 6.94948C15.7044 6.83407 15.5478 6.76924 15.3846 6.76924Z" fill="white"/>
</svg>
