<svg width="12" height="11" viewBox="0 0 12 11" fill="none" xmlns="http://www.w3.org/2000/svg">
<path d="M11.9023 4.16665L11.4308 3.68046C11.3006 3.54618 11.0896 3.54618 10.9594 3.68046L10.7237 3.92344L10.1217 3.30255C10.2389 2.84472 10.1292 2.33791 9.78103 1.97891L8.83831 1.00675C7.53664 -0.335583 5.426 -0.335583 4.12412 1.00675L6.00976 1.97891V2.38174C6.00976 2.74633 6.15017 3.09609 6.40038 3.3539L7.42414 4.40963C7.77227 4.76863 8.26373 4.88186 8.70769 4.7609L9.30978 5.38179L9.07415 5.62478C8.94394 5.75905 8.94394 5.97669 9.07415 6.11097L9.54561 6.59715C9.67582 6.73143 9.88686 6.73143 10.0171 6.59715L11.9027 4.65262C12.0325 4.51856 12.0325 4.30092 11.9023 4.16665ZM5.92892 3.84009C5.85184 3.76059 5.78642 3.67272 5.72371 3.58335L0.4091 8.70024C-0.123611 9.21328 -0.137987 10.0793 0.377225 10.6108C0.892436 11.1424 1.73244 11.1275 2.22994 10.578L7.19101 5.09799C7.10851 5.03547 7.02643 4.97187 6.95268 4.89582L5.92892 3.84009Z" fill="white"/>
</svg>
